<?xml version="1.0" encoding="UTF-8"?>
<svg width="980px" height="551px" viewBox="0 0 980 551" version="1.1" xmlns="http://www.w3.org/2000/svg" xmlns:xlink="http://www.w3.org/1999/xlink">
    <title>Cover Logos</title>
    <g id="Cover-Logos" stroke="none" stroke-width="1" fill="none" fill-rule="evenodd" stroke-linejoin="round">
        <g id="small" transform="translate(77.468084, 35.578007)" fill-rule="nonzero" stroke="#FFFFFF" stroke-width="2">
            <g id="Group" transform="translate(238.549993, 21.261049)">
                <g id="Vue-Logo-rounded" transform="translate(27.500000, 24.000000) rotate(-20.000000) translate(-27.500000, -24.000000) ">
                    <g id="vue-logo" transform="translate(0.995475, 1.000000)">
                        <path d="M20.9614545,-1 L26.5043367,8.62013792 L32.0474023,-1 L54.7393536,-1 L26.5045249,48.0030335 L-1.73030383,-1 L20.9614545,-1 Z" id="Path" fill="#41B883"></path>
                        <path d="M20.9304082,-1 L26.3957066,8.46673578 L32.0776444,-1 L44.0425478,-1 L26.3791115,29.4952489 L8.7177346,-1 L20.9304082,-1 Z" id="Path" fill="#34495E"></path>
                    </g>
                </g>
            </g>
            <g id="Group" transform="translate(5.549993, 395.261049)">
                <g id="Vue-Logo-rounded" transform="translate(27.500000, 24.000000) rotate(16.000000) translate(-27.500000, -24.000000) ">
                    <g id="vue-logo" transform="translate(0.995475, 1.000000)">
                        <path d="M20.9614545,-1 L26.5043367,8.62013792 L32.0474023,-1 L54.7393536,-1 L26.5045249,48.0030335 L-1.73030383,-1 L20.9614545,-1 Z" id="Path" fill="#41B883"></path>
                        <path d="M20.9304082,-1 L26.3957066,8.46673578 L32.0776444,-1 L44.0425478,-1 L26.3791115,29.4952489 L8.7177346,-1 L20.9304082,-1 Z" id="Path" fill="#34495E"></path>
                    </g>
                </g>
            </g>
            <g id="Group" transform="translate(502.549993, 395.261049)">
                <g id="Vue-Logo-rounded" transform="translate(27.500000, 24.000000) rotate(126.000000) translate(-27.500000, -24.000000) ">
                    <g id="vue-logo" transform="translate(0.995475, 1.000000)">
                        <path d="M20.9614545,-1 L26.5043367,8.62013792 L32.0474023,-1 L54.7393536,-1 L26.5045249,48.0030335 L-1.73030383,-1 L20.9614545,-1 Z" id="Path" fill="#41B883"></path>
                        <path d="M20.9304082,-1 L26.3957066,8.46673578 L32.0776444,-1 L44.0425478,-1 L26.3791115,29.4952489 L8.7177346,-1 L20.9304082,-1 Z" id="Path" fill="#34495E"></path>
                    </g>
                </g>
            </g>
            <g id="Group" transform="translate(204.549993, 279.261049)">
                <g id="Vue-Logo-rounded" transform="translate(27.500000, 24.000000) rotate(-27.000000) translate(-27.500000, -24.000000) ">
                    <g id="vue-logo" transform="translate(0.995475, 1.000000)">
                        <path d="M20.9614545,-1 L26.5043367,8.62013792 L32.0474023,-1 L54.7393536,-1 L26.5045249,48.0030335 L-1.73030383,-1 L20.9614545,-1 Z" id="Path" fill="#41B883"></path>
                        <path d="M20.9304082,-1 L26.3957066,8.46673578 L32.0776444,-1 L44.0425478,-1 L26.3791115,29.4952489 L8.7177346,-1 L20.9304082,-1 Z" id="Path" fill="#34495E"></path>
                    </g>
                </g>
            </g>
            <g id="Group" transform="translate(534.549993, 155.261049)">
                <g id="Vue-Logo-rounded" transform="translate(27.500000, 24.000000) rotate(207.000000) translate(-27.500000, -24.000000) ">
                    <g id="vue-logo" transform="translate(0.995475, 1.000000)">
                        <path d="M20.9614545,-1 L26.5043367,8.62013792 L32.0474023,-1 L54.7393536,-1 L26.5045249,48.0030335 L-1.73030383,-1 L20.9614545,-1 Z" id="Path" fill="#41B883"></path>
                        <path d="M20.9304082,-1 L26.3957066,8.46673578 L32.0776444,-1 L44.0425478,-1 L26.3791115,29.4952489 L8.7177346,-1 L20.9304082,-1 Z" id="Path" fill="#34495E"></path>
                    </g>
                </g>
            </g>
            <g id="Group" transform="translate(725.549993, 224.261049)">
                <g id="Vue-Logo-rounded" transform="translate(27.500000, 24.000000) rotate(65.000000) translate(-27.500000, -24.000000) ">
                    <g id="vue-logo" transform="translate(0.995475, 1.000000)">
                        <path d="M20.9614545,-1 L26.5043367,8.62013792 L32.0474023,-1 L54.7393536,-1 L26.5045249,48.0030335 L-1.73030383,-1 L20.9614545,-1 Z" id="Path" fill="#41B883"></path>
                        <path d="M20.9304082,-1 L26.3957066,8.46673578 L32.0776444,-1 L44.0425478,-1 L26.3791115,29.4952489 L8.7177346,-1 L20.9304082,-1 Z" id="Path" fill="#34495E"></path>
                    </g>
                </g>
            </g>
            <g id="Group" transform="translate(793.549993, 8.261049)">
                <g id="Vue-Logo-rounded" transform="translate(27.500000, 24.000000) rotate(-21.000000) translate(-27.500000, -24.000000) ">
                    <g id="vue-logo" transform="translate(0.995475, 1.000000)">
                        <path d="M20.9614545,-1 L26.5043367,8.62013792 L32.0474023,-1 L54.7393536,-1 L26.5045249,48.0030335 L-1.73030383,-1 L20.9614545,-1 Z" id="Path" fill="#41B883"></path>
                        <path d="M20.9304082,-1 L26.3957066,8.46673578 L32.0776444,-1 L44.0425478,-1 L26.3791115,29.4952489 L8.7177346,-1 L20.9304082,-1 Z" id="Path" fill="#34495E"></path>
                    </g>
                </g>
            </g>
        </g>
        <g id="Medium" transform="translate(52.769581, 18.129765)" fill-rule="nonzero" stroke="#FFFFFF" stroke-width="2">
            <g id="Group" transform="translate(11.284210, 216.897426)">
                <g id="Vue-Logo-rounded" transform="translate(40.104167, 35.000000) rotate(26.000000) translate(-40.104167, -35.000000) ">
                    <g id="vue-logo" transform="translate(1.451735, 1.458333)">
                        <path d="M79.0351681,-1 L38.6524321,69.0863668 L-1.73030383,-1 L30.3038994,-1 L38.6521511,13.4890925 L47.0006791,-1 L79.0351681,-1 Z" id="Path" fill="#41B883"></path>
                        <path d="M30.2588853,-1 L38.4860625,13.2507339 L47.0393574,-1 L63.4335734,-1 L38.4695607,42.0994155 L13.5084586,-1 L30.2588853,-1 Z" id="Path" fill="#34495E"></path>
                    </g>
                </g>
            </g>
            <g id="Group" transform="translate(696.268445, 372.193005)">
                <g id="Vue-Logo-rounded" transform="translate(40.104167, 35.000000) rotate(-9.000000) translate(-40.104167, -35.000000) ">
                    <g id="vue-logo" transform="translate(1.451735, 1.458333)">
                        <path d="M79.0351681,-1 L38.6524321,69.0863668 L-1.73030383,-1 L30.3038994,-1 L38.6521511,13.4890925 L47.0006791,-1 L79.0351681,-1 Z" id="Path" fill="#41B883"></path>
                        <path d="M30.2588853,-1 L38.4860625,13.2507339 L47.0393574,-1 L63.4335734,-1 L38.4695607,42.0994155 L13.5084586,-1 L30.2588853,-1 Z" id="Path" fill="#34495E"></path>
                    </g>
                </g>
            </g>
            <g id="Group" transform="translate(455.268445, 18.193005)">
                <g id="Vue-Logo-rounded" transform="translate(40.104167, 35.000000) rotate(-51.000000) translate(-40.104167, -35.000000) ">
                    <g id="vue-logo" transform="translate(1.451735, 1.458333)">
                        <path d="M79.0351681,-1 L38.6524321,69.0863668 L-1.73030383,-1 L30.3038994,-1 L38.6521511,13.4890925 L47.0006791,-1 L79.0351681,-1 Z" id="Path" fill="#41B883"></path>
                        <path d="M30.2588853,-1 L38.4860625,13.2507339 L47.0393574,-1 L63.4335734,-1 L38.4695607,42.0994155 L13.5084586,-1 L30.2588853,-1 Z" id="Path" fill="#34495E"></path>
                    </g>
                </g>
            </g>
        </g>
        <g id="Big" transform="translate(73.336045, 25.957141)" fill-rule="nonzero" stroke="#FFFFFF" stroke-width="2">
            <g id="Group" transform="translate(13.902700, 16.559273)">
                <g id="Vue-Logo-rounded" transform="translate(53.437500, 47.500000) rotate(-22.000000) translate(-53.437500, -47.500000) ">
                    <g id="vue-logo" transform="translate(1.934389, 1.979167)">
                        <path d="M62.8137396,-1 L104.720855,-1 L51.5031109,93.0726115 L-1.71463348,-1 L40.1920981,-1 L51.5027317,18.9940841 L62.8137396,-1 Z" id="Path" fill="#41B883"></path>
                        <path d="M40.1323108,-1 L51.2759386,18.6599273 L62.8612896,-1 L83.9306204,-1 L51.2594571,56.4500634 L18.5921032,-1 L40.1323108,-1 Z" id="Path" fill="#34495E"></path>
                    </g>
                </g>
            </g>
            <g id="Group" transform="translate(333.902700, 179.559273)">
                <g id="Vue-Logo-rounded" transform="translate(53.437500, 47.500000) rotate(-360.000000) translate(-53.437500, -47.500000) ">
                    <g id="vue-logo" transform="translate(1.934389, 1.979167)">
                        <path d="M62.8137396,-1 L104.720855,-1 L51.5031109,93.0726115 L-1.71463348,-1 L40.1920981,-1 L51.5027317,18.9940841 L62.8137396,-1 Z" id="Path" fill="#41B883"></path>
                        <path d="M40.1323108,-1 L51.2759386,18.6599273 L62.8612896,-1 L83.9306204,-1 L51.2594571,56.4500634 L18.5921032,-1 L40.1323108,-1 Z" id="Path" fill="#34495E"></path>
                    </g>
                </g>
            </g>
            <g id="Group" transform="translate(175.643078, 417.335828)">
                <g id="Vue-Logo-rounded" transform="translate(53.437500, 47.500000) rotate(15.000000) translate(-53.437500, -47.500000) ">
                    <g id="vue-logo" transform="translate(1.934389, 1.979167)">
                        <path d="M62.8137396,-1 L104.720855,-1 L51.5031109,93.0726115 L-1.71463348,-1 L40.1920981,-1 L51.5027317,18.9940841 L62.8137396,-1 Z" id="Path" fill="#41B883"></path>
                        <path d="M40.1323108,-1 L51.2759386,18.6599273 L62.8612896,-1 L83.9306204,-1 L51.2594571,56.4500634 L18.5921032,-1 L40.1323108,-1 Z" id="Path" fill="#34495E"></path>
                    </g>
                </g>
            </g>
            <g id="Group" transform="translate(579.496474, 25.092251)">
                <g id="Vue-Logo-rounded" transform="translate(53.437500, 47.500000) rotate(-9.000000) translate(-53.437500, -47.500000) ">
                    <g id="vue-logo" transform="translate(1.934389, 1.979167)">
                        <path d="M62.8137396,-1 L104.720855,-1 L51.5031109,93.0726115 L-1.71463348,-1 L40.1920981,-1 L51.5027317,18.9940841 L62.8137396,-1 Z" id="Path" fill="#41B883"></path>
                        <path d="M40.1323108,-1 L51.2759386,18.6599273 L62.8612896,-1 L83.9306204,-1 L51.2594571,56.4500634 L18.5921032,-1 L40.1323108,-1 Z" id="Path" fill="#34495E"></path>
                    </g>
                </g>
            </g>
        </g>
    </g>
</svg>